<svg width="32" height="32" viewBox="0 0 32 32" fill="none" xmlns="http://www.w3.org/2000/svg">
<g clip-path="url(#clip0_127_1155)">
<path d="M15.9998 -0.0339355C7.15782 -0.0339355 -0.0341797 7.15806 -0.0341797 16.0001C-0.0341797 24.8421 7.15782 32.0341 15.9998 32.0341C24.8418 32.0341 32.0338 24.8421 32.0338 16.0001C32.0338 7.15806 24.8418 -0.0339355 15.9998 -0.0339355ZM15.9998 30.9661C7.74782 30.9661 1.03382 24.2521 1.03382 16.0001C1.03382 7.74806 7.74782 1.03406 15.9998 1.03406C24.2518 1.03406 30.9658 7.74806 30.9658 16.0001C30.9658 24.2521 24.2518 30.9661 15.9998 30.9661Z" fill="white"/>
<g clip-path="url(#clip1_127_1155)">
<path d="M22.1064 13.1978C22.1168 13.3378 22.1168 13.477 22.1168 13.6162C22.1168 17.8762 18.8744 22.785 12.9488 22.785C11.1232 22.785 9.4272 22.2562 8 21.3378C8.2592 21.3674 8.5088 21.3778 8.7784 21.3778C10.2288 21.3813 11.6381 20.8963 12.7792 20.001C12.1067 19.9888 11.4549 19.7669 10.9146 19.3664C10.3743 18.9658 9.97263 18.4065 9.7656 17.7666C9.9648 17.7962 10.1648 17.8162 10.3744 17.8162C10.6632 17.8162 10.9536 17.7762 11.2232 17.7066C10.4934 17.5592 9.83718 17.1637 9.36609 16.5871C8.89501 16.0106 8.63815 15.2887 8.6392 14.5442V14.5042C9.0688 14.7434 9.5672 14.893 10.0952 14.913C9.65287 14.619 9.29018 14.2202 9.03947 13.752C8.78877 13.2838 8.65785 12.7609 8.6584 12.2298C8.6584 11.6314 8.8176 11.0826 9.0968 10.6042C9.90651 11.6002 10.9164 12.415 12.0611 12.9959C13.2057 13.5768 14.4596 13.9108 15.7416 13.9762C15.692 13.7362 15.6616 13.4874 15.6616 13.2378C15.6614 12.8146 15.7446 12.3954 15.9065 12.0044C16.0683 11.6133 16.3057 11.258 16.6049 10.9587C16.9042 10.6595 17.2595 10.4221 17.6506 10.2602C18.0416 10.0984 18.4608 10.0152 18.884 10.0154C19.812 10.0154 20.6496 10.4042 21.2384 11.033C21.9598 10.8935 22.6516 10.6301 23.2832 10.2546C23.0427 10.9992 22.539 11.6307 21.8664 12.0306C22.5062 11.9576 23.1315 11.7893 23.7216 11.5314C23.2809 12.1739 22.7348 12.7373 22.1064 13.1978Z" fill="white"/>
</g>
</g>
<defs>
<clipPath id="clip0_127_1155">
<rect width="32" height="32" fill="white"/>
</clipPath>
<clipPath id="clip1_127_1155">
<rect width="16" height="12.8" fill="white" transform="translate(8 10.0002)"/>
</clipPath>
</defs>
</svg>
