<svg width="32" height="32" viewBox="0 0 32 32" fill="none" xmlns="http://www.w3.org/2000/svg">
<g clip-path="url(#clip0_127_1165)">
<path d="M15.9998 -0.0339355C7.15782 -0.0339355 -0.0341797 7.15806 -0.0341797 16.0001C-0.0341797 24.8421 7.15782 32.0341 15.9998 32.0341C24.8418 32.0341 32.0338 24.8421 32.0338 16.0001C32.0338 7.15806 24.8418 -0.0339355 15.9998 -0.0339355ZM15.9998 30.9661C7.74782 30.9661 1.03382 24.2521 1.03382 16.0001C1.03382 7.74806 7.74782 1.03406 15.9998 1.03406C24.2518 1.03406 30.9658 7.74806 30.9658 16.0001C30.9658 24.2521 24.2518 30.9661 15.9998 30.9661Z" fill="white"/>
<g clip-path="url(#clip1_127_1165)">
<path d="M16.5983 22.0002H13.9316V14.0002H16.5983V15.3336C16.879 14.9764 17.2353 14.6858 17.6416 14.4826C18.0479 14.2794 18.4941 14.1686 18.9483 14.1582C19.7426 14.1626 20.5027 14.4819 21.0619 15.0459C21.6212 15.6099 21.9339 16.3726 21.9316 17.1669V22.0002H19.265V17.5002C19.2134 17.14 19.0334 16.8104 18.7582 16.5723C18.4829 16.3342 18.1309 16.2035 17.767 16.2042C17.6041 16.2094 17.4439 16.2474 17.296 16.316C17.1482 16.3845 17.0157 16.4823 16.9066 16.6033C16.7975 16.7244 16.7139 16.8662 16.6609 17.0203C16.6079 17.1744 16.5866 17.3377 16.5983 17.5002V22.0002ZM12.5983 22.0002H9.93164V14.0002H12.5983V22.0002ZM11.265 12.6669C10.9114 12.6669 10.5722 12.5264 10.3222 12.2764C10.0721 12.0263 9.93164 11.6872 9.93164 11.3336C9.93164 10.98 10.0721 10.6408 10.3222 10.3908C10.5722 10.1407 10.9114 10.0002 11.265 10.0002C11.6186 10.0002 11.9577 10.1407 12.2078 10.3908C12.4578 10.6408 12.5983 10.98 12.5983 11.3336C12.5983 11.6872 12.4578 12.0263 12.2078 12.2764C11.9577 12.5264 11.6186 12.6669 11.265 12.6669Z" fill="white"/>
</g>
</g>
<defs>
<clipPath id="clip0_127_1165">
<rect width="32" height="32" fill="white"/>
</clipPath>
<clipPath id="clip1_127_1165">
<rect width="12" height="12" fill="white" transform="translate(9.93164 10.0002)"/>
</clipPath>
</defs>
</svg>
