<svg width="32" height="32" viewBox="0 0 32 32" fill="none" xmlns="http://www.w3.org/2000/svg">
<path d="M16 0C7.17675 0 0 7.17675 0 16C0 24.8232 7.17675 32 16 32C24.8232 32 32 24.8232 32 16C32 7.17675 24.8232 0 16 0ZM16 31C7.7655 31 1 24.2345 1 16C1 7.7655 7.7655 1 16 1C24.2345 1 31 7.7655 31 16C31 24.2345 24.2345 31 16 31Z" fill="white"/>
<g clip-path="url(#clip0_127_1174)">
<path d="M23.1771 12.2333C23.0961 11.9328 22.9378 11.6588 22.718 11.4384C22.4982 11.2181 22.2245 11.0592 21.9242 10.9775C20.8106 10.6717 16.3554 10.6668 16.3554 10.6668C16.3554 10.6668 11.901 10.6618 10.7867 10.954C10.4866 11.0395 10.2134 11.2006 9.99353 11.422C9.77362 11.6435 9.61431 11.9177 9.53091 12.2184C9.23722 13.332 9.23438 15.6417 9.23438 15.6417C9.23438 15.6417 9.23153 17.9628 9.52309 19.065C9.68664 19.6744 10.1666 20.1558 10.7768 20.3201C11.9018 20.6259 16.3448 20.6308 16.3448 20.6308C16.3448 20.6308 20.7999 20.6358 21.9135 20.3443C22.2139 20.2627 22.4879 20.1042 22.7083 19.8843C22.9286 19.6644 23.0878 19.3908 23.17 19.0906C23.4644 17.9777 23.4666 15.6687 23.4666 15.6687C23.4666 15.6687 23.4808 13.3469 23.1771 12.2333ZM14.9304 17.7814L14.9339 13.5148L18.6367 15.6516L14.9304 17.7814Z" fill="white"/>
</g>
<defs>
<clipPath id="clip0_127_1174">
<rect width="14.9334" height="10.6667" fill="white" transform="translate(8.5332 10.6667)"/>
</clipPath>
</defs>
</svg>
