<svg width="32" height="32" viewBox="0 0 32 32" fill="none" xmlns="http://www.w3.org/2000/svg">
<path d="M16 0C7.17675 0 0 7.17675 0 16C0 24.8233 7.17675 32 16 32C24.8233 32 32 24.8233 32 16C32 7.17675 24.8233 0 16 0ZM16 30.9343C7.7655 30.9343 1.06574 24.2345 1.06574 16C1.06574 7.7655 7.7655 1.06574 16 1.06574C24.2345 1.06574 30.9343 7.7655 30.9343 16C30.9343 24.2345 24.2345 30.9343 16 30.9343Z" fill="white"/>
<path d="M14.4294 23.9492H17.3532V16.6647H19.798L20.1672 13.8307H17.3532V12.0146C17.3532 11.1963 17.5827 10.6375 18.7602 10.6375H20.267V8.09292C20.0075 8.06298 19.1194 7.98315 18.0816 7.98315C15.9063 7.98315 14.4294 9.31033 14.4294 11.7352V13.8307H11.9746V16.6647H14.4294V23.9492Z" fill="white"/>
</svg>
